<svg width="295" height="144" viewBox="0 0 295 144" fill="none" xmlns="http://www.w3.org/2000/svg">
<path d="M77.9611 102.02C78.9169 105.595 76.7562 109.32 73.0455 109.663C66.2552 110.29 59.3694 109.254 53.0061 106.601C44.5493 103.074 37.4867 96.8857 32.9108 88.993C28.3349 81.1002 26.5006 71.943 27.6918 62.9377C28.883 53.9324 33.0333 45.581 39.5006 39.1753C45.9679 32.7696 54.3918 28.6665 63.4693 27.5009C72.5468 26.3352 81.772 28.1719 89.7178 32.7268C97.6637 37.2817 103.887 44.3009 107.426 52.6988C110.089 59.0168 111.12 65.8501 110.476 72.5858C110.124 76.2697 106.368 78.4083 102.768 77.4537C99.1902 76.505 97.1475 72.8427 97.2188 69.1656C97.2939 65.2933 96.559 61.4192 95.0319 57.7954C92.6345 52.1063 88.4183 47.3511 83.0353 44.2653C77.6524 41.1796 71.4028 39.9354 65.2532 40.725C59.1036 41.5147 53.3968 44.2943 49.0155 48.6339C44.6342 52.9735 41.8227 58.6312 41.0157 64.7318C40.2087 70.8324 41.4513 77.0361 44.5512 82.383C47.6512 87.73 52.4358 91.9223 58.1649 94.3115C61.8175 95.8347 65.7243 96.5709 69.6305 96.5019C73.3307 96.4365 77.0119 98.4694 77.9611 102.02Z" fill="#C2566D"/>
<path fill-rule="evenodd" clip-rule="evenodd" d="M63 66C63 63.2386 65.2386 61 68 61H289C291.761 61 294 63.2386 294 66V138C294 140.761 291.761 143 289 143H68C65.2386 143 63 140.761 63 138V66Z" fill="#FDFDFD"/>
<path d="M68 60.5C64.9624 60.5 62.5 62.9624 62.5 66V138C62.5 141.038 64.9624 143.5 68 143.5H289C292.038 143.5 294.5 141.038 294.5 138V66C294.5 62.9624 292.038 60.5 289 60.5H68Z" stroke="black" stroke-opacity="0.12"/>
<path d="M105.406 88.0469H100.297V85.2031H105.117V83.3906H100.297V80.6719H105.406V78.7266H97.9375V90H105.406V88.0469ZM106.938 78.7266V80.7188H115.43V78.7266H106.938ZM114.75 85.2422V83.3828H107.617V85.2422H114.75ZM106.938 88.0078V90H115.43V88.0078H106.938ZM124.523 90H127.031L123.109 78.7266H120.336L116.422 90H118.844L119.703 87.2656H123.664L124.523 90ZM121.656 80.8828H121.711L123.156 85.5H120.211L121.656 80.8828ZM130.547 90V80.6719H135.414V78.7266H128.188V90H130.547ZM144.562 83.8438C144.562 85.6172 143.836 86.7891 142.43 87.6641V90H146.938V88.1328H144.656V88.0703C146.039 87.2266 146.938 85.6328 146.938 83.6719C146.938 80.6172 144.727 78.5312 141.477 78.5312C138.234 78.5312 136.023 80.6172 136.023 83.6719C136.023 85.6328 136.914 87.2266 138.305 88.0703V88.1328H136.023V90H140.531V87.6641C139.125 86.7891 138.391 85.6172 138.391 83.8438C138.391 81.7578 139.609 80.5 141.477 80.5C143.344 80.5 144.562 81.7578 144.562 83.8438ZM150.891 90V80.6719H155.758V78.7266H148.531V90H150.891ZM166.953 90V78.7266H164.594V83.3047H159.516V78.7266H157.156V90H159.516V85.25H164.594V90H166.953Z" fill="black"/>
<path opacity="0.34" d="M103.659 110.769H99.2661V107.925H103.424V106.744H99.2661V104.065H103.659V102.84H97.8442V112H103.659V110.769ZM109.454 114.247C109.854 113.638 110.006 113.187 110.006 112.647C110.006 111.651 109.499 111.105 107.969 110.604C106.464 110.096 106.045 109.708 106.045 109.036C106.045 108.115 106.845 107.709 108.362 107.709H109.372V106.585H108.407C107.017 106.585 106.35 106.293 106.35 105.506C106.35 104.586 107.175 104.161 109.13 103.938L109.822 103.862V102.847H105.062V103.996H106.477V104.015C105.557 104.256 105.036 104.77 105.036 105.595C105.036 106.458 105.506 106.954 106.458 107.29V107.309C105.277 107.563 104.655 108.28 104.655 109.264C104.655 110.318 105.227 111.061 107.296 111.727C108.464 112.102 108.711 112.368 108.711 112.882C108.711 113.225 108.629 113.549 108.356 114.006L109.454 114.247ZM113.517 110.953C112.495 110.953 111.885 110.083 111.885 108.661C111.885 107.271 112.526 106.37 113.536 106.37C114.577 106.37 115.288 107.328 115.288 108.661C115.288 110.013 114.589 110.953 113.517 110.953ZM113.275 112.114C114.196 112.114 114.977 111.613 115.3 110.902H115.338C115.345 110.921 115.351 110.94 115.357 110.959C115.529 111.689 116.075 112.051 116.925 112.051C117.205 112.051 117.458 112.013 117.585 111.962L117.579 110.902C117.497 110.927 117.357 110.953 117.236 110.953C116.83 110.953 116.665 110.724 116.665 110.146V105.322H115.332V106.433H115.307C114.907 105.697 114.208 105.214 113.275 105.214C111.568 105.214 110.482 106.566 110.482 108.661C110.482 110.762 111.562 112.114 113.275 112.114ZM121.73 114.158V112.197C123.362 109.981 124.2 108.414 124.2 106.376C124.2 105.957 124.181 105.671 124.136 105.322H122.835C122.886 105.76 122.898 105.944 122.898 106.376C122.898 107.976 122.308 109.296 121.204 110.883H121.172L119.464 105.322H118.023L120.378 112.229V114.158H121.73ZM131.411 112.127C132.985 112.127 133.797 110.946 133.797 108.858C133.797 107.607 133.423 106.224 132.839 105.322H131.417C132.09 106.439 132.433 107.614 132.433 108.864C132.433 110.273 132.058 110.934 131.271 110.934C130.566 110.934 130.135 110.305 130.135 109.353V107.233H128.833V109.353C128.833 110.299 128.408 110.934 127.71 110.934C126.917 110.934 126.542 110.273 126.542 108.864C126.542 107.614 126.885 106.439 127.558 105.322H126.136C125.558 106.224 125.177 107.607 125.177 108.858C125.177 110.94 125.99 112.127 127.564 112.127C128.459 112.127 129.1 111.606 129.468 110.616H129.506C129.875 111.606 130.516 112.127 131.411 112.127ZM138.12 114.158V112.197C139.751 109.981 140.589 108.414 140.589 106.376C140.589 105.957 140.57 105.671 140.526 105.322H139.225C139.275 105.76 139.288 105.944 139.288 106.376C139.288 107.976 138.698 109.296 137.593 110.883H137.562L135.854 105.322H134.413L136.768 112.229V114.158H138.12ZM148.276 114.209V107.696C148.276 106.141 147.477 105.208 145.934 105.208C144.938 105.208 144.309 105.64 143.909 106.414H143.877C143.858 106.319 143.833 106.236 143.808 106.154C143.592 105.544 143.084 105.259 142.335 105.259C142.062 105.259 141.859 105.284 141.586 105.341V106.42C141.675 106.389 141.846 106.363 141.96 106.363C142.36 106.363 142.563 106.585 142.563 107.176V112H143.935V108.103C143.935 107.093 144.519 106.389 145.464 106.389C146.524 106.389 146.905 106.96 146.905 108.026V114.209H148.276ZM144.055 104.376H145.16L146.118 102.434H144.538L144.055 104.376ZM154.954 112.121C156.865 112.121 157.906 110.794 157.906 108.42C157.906 107.239 157.652 106.059 157.303 105.322H155.938C156.389 106.395 156.535 107.169 156.535 108.547C156.535 110.077 156.046 110.927 154.948 110.927C154.021 110.927 153.57 110.362 153.57 109.226V105.322H152.237V109.321C152.237 111.105 153.177 112.121 154.954 112.121ZM158.026 112H159.404L161.194 107.354H161.219L162.355 110.673C162.73 111.765 163.162 112.051 164.057 112.051C164.368 112.051 164.583 112.019 164.755 111.975L164.698 110.896C164.622 110.921 164.476 110.953 164.355 110.953C163.93 110.953 163.733 110.794 163.536 110.235L161.613 104.764C161.042 103.132 160.623 102.783 159.48 102.783C159.277 102.783 159.01 102.815 158.801 102.866V103.945C158.902 103.913 159.093 103.888 159.226 103.888C159.854 103.888 160.007 103.983 160.375 104.96L160.654 105.729L158.026 112ZM165.561 105.322V110.242C165.561 111.537 166.088 112.044 167.44 112.044C167.751 112.044 168.113 111.981 168.214 111.956L168.202 110.896C168.106 110.915 167.884 110.927 167.751 110.927C167.192 110.927 166.938 110.667 166.938 110.089V105.322H165.561ZM169.23 112H170.582V110.286L171.833 108.921L173.819 112H175.311L172.715 108.052L173.477 107.176C174.022 106.541 174.245 106.408 174.619 106.408C174.746 106.408 175 106.433 175.076 106.458V105.379C174.898 105.335 174.619 105.303 174.397 105.303C173.686 105.303 173.292 105.544 172.543 106.427L170.601 108.687H170.582V105.322H169.23V112ZM182.192 112.127C183.766 112.127 184.579 110.946 184.579 108.858C184.579 107.607 184.204 106.224 183.62 105.322H182.198C182.871 106.439 183.214 107.614 183.214 108.864C183.214 110.273 182.839 110.934 182.052 110.934C181.348 110.934 180.916 110.305 180.916 109.353V107.233H179.615V109.353C179.615 110.299 179.189 110.934 178.491 110.934C177.698 110.934 177.323 110.273 177.323 108.864C177.323 107.614 177.666 106.439 178.339 105.322H176.917C176.339 106.224 175.958 107.607 175.958 108.858C175.958 110.94 176.771 112.127 178.345 112.127C179.24 112.127 179.881 111.606 180.25 110.616H180.288C180.656 111.606 181.297 112.127 182.192 112.127ZM179.729 104.376H180.833L181.792 102.434H180.211L179.729 104.376ZM187.473 112H189.047C190.672 109.797 191.269 108.299 191.269 106.376C191.269 105.957 191.25 105.671 191.212 105.322H189.904C189.955 105.767 189.968 105.951 189.968 106.376C189.968 107.982 189.485 109.283 188.375 110.883H188.343L186.635 105.322H185.194L187.473 112ZM201.597 114.209V107.696C201.597 106.141 200.797 105.208 199.254 105.208C198.258 105.208 197.629 105.64 197.229 106.414H197.198C197.179 106.319 197.153 106.236 197.128 106.154C196.912 105.544 196.404 105.259 195.655 105.259C195.382 105.259 195.179 105.284 194.906 105.341V106.42C194.995 106.389 195.167 106.363 195.281 106.363C195.681 106.363 195.884 106.585 195.884 107.176V112H197.255V108.103C197.255 107.093 197.839 106.389 198.785 106.389C199.845 106.389 200.226 106.96 200.226 108.026V114.209H201.597ZM197.375 104.376H198.48L199.438 102.434H197.858L197.375 104.376ZM208.624 110.946C207.716 110.946 206.884 110.216 206.884 108.636C206.884 107.208 207.532 106.344 208.63 106.344C209.722 106.344 210.401 107.188 210.401 108.648C210.401 110.077 209.722 110.946 208.624 110.946ZM205.52 114.209H206.891V110.953H206.922C207.278 111.67 208.046 112.114 208.973 112.114C210.712 112.114 211.81 110.769 211.81 108.636C211.81 106.541 210.547 105.202 208.636 105.202C206.732 105.202 205.52 106.554 205.52 108.718V114.209ZM215.435 112.127C217.225 112.127 218.469 111.207 218.666 109.842H217.275C217.11 110.584 216.533 110.997 215.504 110.997C214.527 110.997 214.025 110.661 214.025 110.064C214.025 109.518 214.546 109.169 215.485 109.169H216.406V108.103H215.485C214.489 108.103 214.076 107.804 214.076 107.252C214.076 106.731 214.495 106.319 215.479 106.325C216.647 106.332 217.047 106.744 217.193 107.474H218.551C218.412 106.09 217.402 105.202 215.549 105.202C213.784 105.202 212.743 106.008 212.743 107.169C212.743 107.868 213.124 108.382 213.829 108.636V108.667C213.061 108.89 212.623 109.455 212.623 110.197C212.623 111.346 213.651 112.127 215.435 112.127ZM223.103 112.044C223.407 112.044 223.725 112.006 223.89 111.962L223.883 110.896C223.737 110.921 223.604 110.927 223.42 110.927C222.804 110.927 222.588 110.629 222.588 110.07V106.446H224.829V105.322H219.192V106.446H221.211V110.197C221.211 111.505 221.7 112.044 223.103 112.044ZM228.612 110.953C227.59 110.953 226.981 110.083 226.981 108.661C226.981 107.271 227.622 106.37 228.631 106.37C229.672 106.37 230.383 107.328 230.383 108.661C230.383 110.013 229.685 110.953 228.612 110.953ZM228.371 112.114C229.292 112.114 230.072 111.613 230.396 110.902H230.434C230.44 110.921 230.447 110.94 230.453 110.959C230.625 111.689 231.17 112.051 232.021 112.051C232.3 112.051 232.554 112.013 232.681 111.962L232.675 110.902C232.592 110.927 232.453 110.953 232.332 110.953C231.926 110.953 231.761 110.724 231.761 110.146V105.322H230.428V106.433H230.402C230.002 105.697 229.304 105.214 228.371 105.214C226.664 105.214 225.578 106.566 225.578 108.661C225.578 110.762 226.657 112.114 228.371 112.114ZM233.221 112H234.598L236.388 107.354H236.414L237.55 110.673C237.924 111.765 238.356 112.051 239.251 112.051C239.562 112.051 239.778 112.019 239.949 111.975L239.892 110.896C239.816 110.921 239.67 110.953 239.549 110.953C239.124 110.953 238.927 110.794 238.73 110.235L236.807 104.764C236.236 103.132 235.817 102.783 234.674 102.783C234.471 102.783 234.205 102.815 233.995 102.866V103.945C234.097 103.913 234.287 103.888 234.42 103.888C235.049 103.888 235.201 103.983 235.569 104.96L235.849 105.729L233.221 112ZM240.755 105.322V110.242C240.755 111.537 241.282 112.044 242.634 112.044C242.945 112.044 243.307 111.981 243.409 111.956L243.396 110.896C243.301 110.915 243.079 110.927 242.945 110.927C242.387 110.927 242.133 110.667 242.133 110.089V105.322H240.755ZM250.34 112.127C251.915 112.127 252.727 110.946 252.727 108.858C252.727 107.607 252.353 106.224 251.769 105.322H250.347C251.02 106.439 251.362 107.614 251.362 108.864C251.362 110.273 250.988 110.934 250.201 110.934C249.496 110.934 249.064 110.305 249.064 109.353V107.233H247.763V109.353C247.763 110.299 247.338 110.934 246.64 110.934C245.846 110.934 245.472 110.273 245.472 108.864C245.472 107.614 245.814 106.439 246.487 105.322H245.065C244.488 106.224 244.107 107.607 244.107 108.858C244.107 110.94 244.919 112.127 246.494 112.127C247.389 112.127 248.03 111.606 248.398 110.616H248.436C248.804 111.606 249.445 112.127 250.34 112.127ZM247.877 104.376H248.982L249.94 102.434H248.36L247.877 104.376ZM255.622 112H257.196C258.821 109.797 259.417 108.299 259.417 106.376C259.417 105.957 259.398 105.671 259.36 105.322H258.053C258.104 105.767 258.116 105.951 258.116 106.376C258.116 107.982 257.634 109.283 256.523 110.883H256.491L254.784 105.322H253.343L255.622 112ZM100.415 126.953C99.3931 126.953 98.7837 126.083 98.7837 124.661C98.7837 123.271 99.4248 122.37 100.434 122.37C101.475 122.37 102.186 123.328 102.186 124.661C102.186 126.013 101.488 126.953 100.415 126.953ZM100.174 128.114C101.094 128.114 101.875 127.613 102.199 126.902H102.237C102.243 126.921 102.25 126.94 102.256 126.959C102.427 127.689 102.973 128.051 103.824 128.051C104.103 128.051 104.357 128.013 104.484 127.962L104.478 126.902C104.395 126.927 104.255 126.953 104.135 126.953C103.729 126.953 103.563 126.724 103.563 126.146V121.322H102.23V122.433H102.205C101.805 121.697 101.107 121.214 100.174 121.214C98.4663 121.214 97.3809 122.566 97.3809 124.661C97.3809 126.762 98.46 128.114 100.174 128.114ZM106.21 128H107.524V122.446H109.867V126.375C109.867 127.587 110.336 128.051 111.466 128.051C111.777 128.051 112.031 128.013 112.165 127.962L112.152 126.896C112.05 126.934 111.885 126.953 111.784 126.953C111.377 126.953 111.181 126.737 111.181 126.197V122.446H112.533V121.322H104.89V122.446H106.21V128ZM116.329 128.127C118.252 128.127 119.477 126.781 119.477 124.661C119.477 122.528 118.271 121.202 116.329 121.202C114.393 121.202 113.187 122.528 113.187 124.661C113.187 126.775 114.405 128.127 116.329 128.127ZM116.329 126.978C115.218 126.978 114.589 126.134 114.589 124.661C114.589 123.22 115.237 122.344 116.329 122.344C117.42 122.344 118.068 123.22 118.068 124.661C118.068 126.134 117.439 126.978 116.329 126.978ZM126.758 128.044C127.062 128.044 127.38 128.006 127.545 127.962L127.539 126.896C127.393 126.921 127.259 126.927 127.075 126.927C126.459 126.927 126.244 126.629 126.244 126.07V122.446H128.484V121.322H122.848V122.446H124.866V126.197C124.866 127.505 125.355 128.044 126.758 128.044ZM136.14 130.209V123.696C136.14 122.141 135.34 121.208 133.797 121.208C132.801 121.208 132.172 121.64 131.772 122.414H131.741C131.722 122.319 131.696 122.236 131.671 122.154C131.455 121.544 130.947 121.259 130.198 121.259C129.925 121.259 129.722 121.284 129.449 121.341V122.42C129.538 122.389 129.709 122.363 129.824 122.363C130.224 122.363 130.427 122.585 130.427 123.176V128H131.798V124.103C131.798 123.093 132.382 122.389 133.328 122.389C134.388 122.389 134.769 122.96 134.769 124.026V130.209H136.14ZM139.193 128H140.767C142.392 125.797 142.989 124.299 142.989 122.376C142.989 121.957 142.97 121.671 142.932 121.322H141.624C141.675 121.767 141.688 121.951 141.688 122.376C141.688 123.982 141.205 125.283 140.094 126.883H140.062L138.355 121.322H136.914L139.193 128ZM149.584 126.953C148.562 126.953 147.953 126.083 147.953 124.661C147.953 123.271 148.594 122.37 149.603 122.37C150.644 122.37 151.355 123.328 151.355 124.661C151.355 126.013 150.657 126.953 149.584 126.953ZM149.343 128.114C150.263 128.114 151.044 127.613 151.368 126.902H151.406C151.412 126.921 151.418 126.94 151.425 126.959C151.596 127.689 152.142 128.051 152.993 128.051C153.272 128.051 153.526 128.013 153.653 127.962L153.646 126.902C153.564 126.927 153.424 126.953 153.304 126.953C152.897 126.953 152.732 126.724 152.732 126.146V121.322H151.399V122.433H151.374C150.974 121.697 150.276 121.214 149.343 121.214C147.635 121.214 146.55 122.566 146.55 124.661C146.55 126.762 147.629 128.114 149.343 128.114ZM155.379 128H156.693V122.446H159.036V126.375C159.036 127.587 159.505 128.051 160.635 128.051C160.946 128.051 161.2 128.013 161.333 127.962L161.321 126.896C161.219 126.934 161.054 126.953 160.953 126.953C160.546 126.953 160.35 126.737 160.35 126.197V122.446H161.702V121.322H154.059V122.446H155.379V128ZM165.498 128.127C167.421 128.127 168.646 126.781 168.646 124.661C168.646 122.528 167.44 121.202 165.498 121.202C163.562 121.202 162.355 122.528 162.355 124.661C162.355 126.775 163.574 128.127 165.498 128.127ZM165.498 126.978C164.387 126.978 163.758 126.134 163.758 124.661C163.758 123.22 164.406 122.344 165.498 122.344C166.589 122.344 167.237 123.22 167.237 124.661C167.237 126.134 166.608 126.978 165.498 126.978ZM172.772 128.127C174.854 128.127 175.965 126.502 175.965 123.411C175.965 120.338 174.841 118.713 172.772 118.713C170.703 118.713 169.573 120.313 169.573 123.392C169.573 126.489 170.652 128.127 172.772 128.127ZM172.772 127.01C171.572 127.01 171.007 126.07 170.957 123.906H174.581C174.53 126.077 173.959 127.01 172.772 127.01ZM170.957 122.801C171.033 120.783 171.636 119.824 172.772 119.824C173.902 119.824 174.505 120.783 174.575 122.801H170.957ZM183.607 130.209V123.696C183.607 122.141 182.808 121.208 181.265 121.208C180.269 121.208 179.64 121.64 179.24 122.414H179.208C179.189 122.319 179.164 122.236 179.139 122.154C178.923 121.544 178.415 121.259 177.666 121.259C177.393 121.259 177.19 121.284 176.917 121.341V122.42C177.006 122.389 177.177 122.363 177.292 122.363C177.691 122.363 177.895 122.585 177.895 123.176V128H179.266V124.103C179.266 123.093 179.85 122.389 180.795 122.389C181.855 122.389 182.236 122.96 182.236 124.026V130.209H183.607ZM179.386 120.376H180.491L181.449 118.434H179.869L179.386 120.376ZM185.01 128H186.362V126.286L187.613 124.921L189.6 128H191.091L188.495 124.052L189.257 123.176C189.803 122.541 190.025 122.408 190.399 122.408C190.526 122.408 190.78 122.433 190.856 122.458V121.379C190.679 121.335 190.399 121.303 190.177 121.303C189.466 121.303 189.073 121.544 188.324 122.427L186.381 124.687H186.362V121.322H185.01V128ZM198.562 130.209V123.696C198.562 122.141 197.763 121.208 196.22 121.208C195.224 121.208 194.595 121.64 194.195 122.414H194.164C194.145 122.319 194.119 122.236 194.094 122.154C193.878 121.544 193.37 121.259 192.621 121.259C192.348 121.259 192.145 121.284 191.872 121.341V122.42C191.961 122.389 192.132 122.363 192.247 122.363C192.646 122.363 192.85 122.585 192.85 123.176V128H194.221V124.103C194.221 123.093 194.805 122.389 195.75 122.389C196.811 122.389 197.191 122.96 197.191 124.026V130.209H198.562Z" fill="black"/>
</svg>
