<svg width="332" height="303" viewBox="0 0 332 303" fill="none" xmlns="http://www.w3.org/2000/svg">
<path d="M303.211 158.361C271.79 118.025 300.727 94.3467 293.784 82.0082C279.608 25.6473 95.9918 0 51.2159 0C-9.65921 0 28.8779 69.3729 28.8779 118.025C28.8779 119.529 28.8779 121.034 28.9786 122.438C30.2866 143.604 23.1426 164.269 9.5589 180.62C3.42108 187.943 0 196.369 0 205.196C0 233.384 34.8145 256.256 77.6786 256.256C92.3691 256.256 106.053 253.547 117.826 248.933C135.535 241.911 154.955 241.008 173.066 246.826C184.638 250.538 197.215 252.544 210.396 252.544C265.335 252.544 331.175 253.025 331.175 209.891C331.175 184.11 303.211 158.361 303.211 158.361Z" fill="#0EE1CD"/>
<path d="M138.693 51.8643L61.9593 63.0783C60.2891 63.354 59.1757 64.8247 59.4541 66.3873L64.2789 98.7425C64.5573 100.397 66.0418 101.5 67.6192 101.224L144.353 90.0103C146.023 89.7345 147.136 88.2638 146.858 86.7012L142.033 54.438C141.847 52.7835 140.363 51.6804 138.693 51.8643Z" fill="white"/>
<path opacity="0.9" d="M80.8377 68.0969L69.8445 69.7019C67.6585 70.0211 66.15 72.0511 66.4751 74.2362L68.5852 88.4205C68.9103 90.6056 70.9458 92.1182 73.1318 91.799L84.1251 90.194C86.311 89.8749 87.8195 87.8448 87.4945 85.6597L85.3843 71.4755C85.0592 69.2904 83.0237 67.7778 80.8377 68.0969Z" fill="url(#paint0_linear)"/>
<path opacity="0.9" d="M129.219 70.8845L94.9913 75.8817C93.8984 76.0413 93.1441 77.0563 93.3066 78.1489L93.5843 80.0157C93.7469 81.1083 94.7647 81.8646 95.8576 81.705L130.085 76.7078C131.178 76.5482 131.933 75.5332 131.77 74.4406L131.492 72.5738C131.33 71.4813 130.312 70.7249 129.219 70.8845Z" fill="url(#paint1_linear)"/>
<path opacity="0.9" d="M111.729 64.6004L93.7345 67.2275C92.6416 67.387 91.8873 68.4021 92.0498 69.4946L92.3276 71.3615C92.4901 72.454 93.5079 73.2103 94.6009 73.0507L112.595 70.4236C113.688 70.264 114.442 69.249 114.28 68.1565L114.002 66.2896C113.839 65.1971 112.821 64.4408 111.729 64.6004Z" fill="url(#paint2_linear)"/>
<path d="M107.332 159.5C107.332 159.5 107.053 162.809 105.94 163.085C104.919 163.361 104.177 163.269 103.713 161.798C103.249 160.328 103.435 158.03 103.806 156.651C104.177 155.272 105.754 153.342 106.033 153.25C107.146 152.882 106.218 155.272 105.847 156.375C105.476 157.57 105.105 158.857 105.754 158.949C106.404 158.949 106.96 156.651 107.703 156.467C108.445 156.191 107.332 159.5 107.332 159.5Z" fill="#FA968C"/>
<g filter="url(#filter0_d)">
<path d="M217.375 276.236V105.82C217.375 102.603 214.684 99.9374 211.436 99.9374H119.95C116.703 99.9374 114.012 102.603 114.012 105.82V276.144H217.375V276.236Z" fill="#04347F"/>
</g>
<g filter="url(#filter1_d)">
<path d="M217.375 276.604C217.375 279.821 214.684 282.487 211.437 282.487H119.95C116.703 282.487 114.012 279.821 114.012 276.604V260.702H217.375V276.604Z" fill="#04347F"/>
</g>
<g filter="url(#filter2_d)">
<circle cx="164.645" cy="271.161" r="5.65574" fill="white"/>
</g>
<path d="M210.88 112.071H120.6V260.702H210.88V112.071Z" fill="#F2F2F2"/>
<path opacity="0.7" d="M209.787 112.071H121.507C120.955 112.071 120.507 112.518 120.507 113.071V120.814C120.507 121.366 120.955 121.814 121.507 121.814H209.787C210.34 121.814 210.787 121.366 210.787 120.814V113.071C210.787 112.518 210.34 112.071 209.787 112.071Z" fill="url(#paint3_linear)"/>
<path d="M160.364 116.391H127.321C126.991 116.391 126.724 116.658 126.724 116.988C126.724 117.318 126.991 117.586 127.321 117.586H160.364C160.694 117.586 160.961 117.318 160.961 116.988C160.961 116.658 160.694 116.391 160.364 116.391Z" fill="white"/>
<path d="M206.996 115.747H206.785C206.023 115.747 205.406 116.365 205.406 117.126C205.406 117.888 206.023 118.505 206.785 118.505H206.996C207.758 118.505 208.375 117.888 208.375 117.126C208.375 116.365 207.758 115.747 206.996 115.747Z" fill="white"/>
<path d="M201.058 115.747H200.846C200.085 115.747 199.468 116.365 199.468 117.126C199.468 117.888 200.085 118.505 200.846 118.505H201.058C201.819 118.505 202.437 117.888 202.437 117.126C202.437 116.365 201.819 115.747 201.058 115.747Z" fill="white"/>
<path d="M195.213 115.747H195.001C194.24 115.747 193.622 116.365 193.622 117.126C193.622 117.888 194.24 118.505 195.001 118.505H195.213C195.974 118.505 196.591 117.888 196.591 117.126C196.591 116.365 195.974 115.747 195.213 115.747Z" fill="white"/>
<g opacity="0.57" filter="url(#filter3_d)">
<path d="M206.89 134.774H196.498V161.706H206.89V134.774Z" fill="#7D4199"/>
</g>
<g opacity="0.57" filter="url(#filter4_d)">
<path d="M197.983 134.774H187.591V180.55H197.983V134.774Z" fill="#7D4199"/>
</g>
<path opacity="0.09" d="M186.291 130.914H108.723C107.053 130.914 105.754 132.201 105.754 133.855V166.486C105.754 168.141 107.053 169.428 108.723 169.428H186.291C187.961 169.428 189.26 168.141 189.26 166.486V133.855C189.26 132.201 187.961 130.914 186.291 130.914Z" fill="black"/>
<path d="M186.291 129.719H108.723C107.053 129.719 105.754 131.006 105.754 132.66V165.291C105.754 166.946 107.053 168.233 108.723 168.233H186.291C187.961 168.233 189.26 166.946 189.26 165.291V132.66C189.26 131.006 187.961 129.719 186.291 129.719Z" fill="white"/>
<path d="M269.427 274.398V274.857C269.52 275.96 269.149 278.442 268.499 279.27C269.427 279.178 272.953 278.626 274.716 273.387C274.437 273.111 274.066 272.743 273.788 272.56C273.51 272.284 272.953 271.916 272.582 271.732C271.839 271.273 271.097 270.721 270.633 269.986L266.551 263.276L265.808 267.78L268.406 271.64C268.963 272.376 269.334 273.387 269.427 274.398Z" fill="#FAB9AF"/>
<path d="M270.819 281.476C271.561 281.2 275.458 275.041 275.458 275.041C275.736 274.674 275.644 274.214 275.365 273.938C274.994 273.663 274.623 273.203 274.159 272.835C273.231 275.961 271.097 279.361 268.406 279.086C267.293 278.994 265.344 279.913 265.437 281.568C266.458 281.751 269.056 281.751 270.819 281.476Z" fill="#7D4199"/>
<path d="M93.7847 178.803C99.3518 177.24 104.548 161.43 104.177 162.35C104.641 161.063 106.682 161.614 106.403 162.901C105.754 166.578 104.919 170.255 103.62 173.839C101.115 181.193 95.7332 186.892 88.2175 184.042C82.7432 181.836 77.9184 175.494 75.2276 170.622C74.207 168.692 74.8565 166.302 76.805 165.199C78.8462 164.096 81.4442 164.923 82.3721 167.129C84.2278 171.082 89.5165 180.182 93.7847 178.803Z" fill="#FA968C"/>
<path d="M87.6612 175.31C87.6612 175.31 83.1147 168.6 82.558 167.313V167.221C82.558 167.13 82.4652 167.038 82.3724 166.946C81.3518 165.015 78.9394 164.28 76.8981 165.291C74.9496 166.302 74.2073 168.692 75.228 170.714C76.1558 172.553 77.1764 174.023 78.1971 175.586C78.9394 176.597 79.6816 177.608 80.5167 178.619C81.0734 177.884 86.2694 175.77 87.6612 175.31Z" fill="#56CCF2"/>
<path d="M83.2996 203.345C79.7738 207.298 59.6394 208.952 59.6394 208.952C58.1548 207.206 60.2889 199.485 60.8456 191.58C61.4023 183.031 61.7735 173.564 61.8663 168.508C61.959 166.394 63.6292 164.74 65.7632 164.74H78.5676C80.5161 164.74 82.1862 166.21 82.3718 168.141C82.7429 172.185 83.2996 179.171 83.8563 186.065C84.4131 193.142 86.2688 199.944 83.2996 203.345Z" fill="#0066C5"/>
<path d="M58.4671 252.785L55.9619 260.965L55.3124 264.826C55.2196 265.469 55.6836 266.113 56.3331 266.113C59.5805 266.205 67.9312 266.389 68.1168 266.113C69.1374 264.458 64.4054 263.815 60.9723 262.436C59.3022 261.793 62.2713 253.704 62.2713 253.704C62.3641 250.027 59.9517 248.097 59.9517 248.097L58.4671 252.785Z" fill="#FA968C"/>
<path d="M64.0776 228.879C62.9632 231.382 58.5056 247.846 56.9269 256.343L61.013 257.026C65.3777 249.287 71.8784 233.962 72.9927 231.458V231.382C77.7289 223.037 83.4866 206.27 84.3224 202.78C85.4368 198.076 82.7437 193.676 78.2861 192.993C73.8285 192.31 69.2781 195.497 68.1637 200.201C67.4208 203.235 64.6348 227.741 64.0776 228.879Z" fill="#F2F2F2"/>
<path d="M80.6093 269.25L82.3722 277.707L81.7227 281.567C81.6299 282.211 82.0938 282.854 82.7433 282.854C85.9908 282.946 94.3415 283.13 94.527 282.854C95.5477 281.2 90.8156 280.556 87.3826 279.178C84.2279 275.961 84.2279 267.228 84.2279 267.228L80.6093 269.25Z" fill="#FA968C"/>
<path d="M71.6089 240.572C72.0729 243.605 77.4544 262.081 80.8875 271.365L84.5989 270.262C83.9494 260.518 80.7947 242.227 80.4235 239.285V239.193C79.774 228.715 76.0626 208.952 74.8564 205.092C73.1863 199.852 67.6192 197.095 63.5366 198.382C59.4541 199.669 58.3406 204.54 60.0108 209.78C61.1242 212.997 71.4234 239.193 71.6089 240.572Z" fill="white"/>
<path d="M78.7535 164.74H77.3596C76.9657 164.74 76.6157 164.975 76.4147 165.314C75.6027 166.683 74.1977 167.681 72.0729 167.681C69.9482 167.681 68.5432 166.683 67.7312 165.314C67.5302 164.975 67.1802 164.74 66.7863 164.74H65.578C63.6295 164.74 62.0521 166.302 61.9593 168.141C61.7738 173.196 61.4954 182.847 60.9387 191.58C60.4196 198.951 58.5288 205.843 59.4797 208.454C59.599 208.781 59.9413 208.939 60.289 208.913C63.6714 208.667 81.4386 207.229 84.8773 203.989C86.0835 202.794 84.5989 193.05 83.9494 186.065C83.3927 179.079 82.7432 172.001 82.4649 168.049C82.1865 166.21 80.6092 164.74 78.7535 164.74Z" fill="url(#paint4_linear)"/>
<path d="M96.7536 175.126C105.754 171.082 107.053 166.854 108.63 168.692C109.001 169.152 109.001 169.703 108.63 170.163C91.9287 190.844 70.9593 184.962 61.0313 171.266C57.9694 167.038 64.3715 162.35 67.5262 166.67C75.5058 177.24 86.4544 179.63 96.7536 175.126Z" fill="#FAB9AF"/>
<path d="M73.7428 172.553C71.0521 170.163 67.3407 165.843 67.3407 165.843C67.3407 165.843 65.6705 163.912 62.3303 165.291C59.6395 166.394 60.1962 169.519 60.1962 169.519C60.289 169.979 61.9591 174.299 68.1757 178.803C68.1757 178.803 74.2068 172.92 73.7428 172.553Z" fill="#56CCF2"/>
<path opacity="0.68" d="M71.3554 159.859C71.3939 160.02 71.3024 160.184 71.145 160.236C69.2893 160.603 67.5264 159.5 67.0625 157.662L66.352 154.554C66.1291 153.578 66.7357 152.606 67.7098 152.377C68.6856 152.148 69.6627 152.752 69.8949 153.727L71.3554 159.859Z" fill="url(#paint5_linear)"/>
<path d="M74.5779 164.74H67.8973L69.8458 158.122L74.3923 158.673L74.5779 164.74Z" fill="#FAB9AF"/>
<path d="M75.135 162.258C72.1659 162.901 69.104 161.063 68.4545 158.03L68.1601 156.766C67.5569 154.177 69.1922 151.595 71.7909 151.035C74.3566 150.481 76.8979 152.11 77.2484 154.711C77.399 155.829 77.5184 156.996 77.5474 158.03C77.5474 160.42 76.6196 161.89 75.135 162.258Z" fill="#FAB9AF"/>
<path d="M69.7533 156.559C70.0317 157.754 69.6605 158.765 68.9182 158.949C68.176 159.133 67.0625 157.754 66.877 156.559C66.5986 155.364 67.3409 154.813 67.9904 154.721C68.7327 154.537 69.475 155.364 69.7533 156.559Z" fill="#FAB9AF"/>
<path opacity="0.68" d="M77.64 152.331C77.7328 151.503 77.5472 150.768 77.2688 150.033C76.5266 148.194 74.4853 147.367 72.5368 148.103C72.3512 148.194 72.1656 148.194 71.8873 148.286L68.7326 149.022C66.8769 149.481 65.6707 151.32 66.0418 153.158C66.1606 153.629 66.462 154.033 66.8793 154.281L67.6853 154.76C67.9461 154.915 68.1627 155.134 68.3143 155.397L68.7848 156.213C68.8099 156.256 68.8564 156.283 68.9066 156.283C68.9143 156.283 68.922 156.283 68.9295 156.281C69.4812 156.183 69.9382 155.544 69.846 154.996C69.6604 153.985 70.2172 153.066 71.145 152.882L73.9286 152.239C75.5987 151.871 76.7121 152.606 76.9905 153.801C77.0267 154.017 77.3357 154.019 77.3745 153.804L77.64 152.331Z" fill="url(#paint6_linear)"/>
<path opacity="0.68" d="M68.315 149.682C68.1294 151.428 74.346 153.542 75.9234 153.726C77.5935 153.91 79.0781 152.715 79.2636 150.969C79.4492 149.222 78.3358 147.66 76.6656 147.476C75.0883 147.292 68.5933 147.935 68.315 149.682Z" fill="url(#paint7_linear)"/>
<path d="M234.076 151.871C234.076 151.871 235.096 154.261 234.354 156.651C233.612 159.041 234.076 161.982 236.117 164.188C236.117 164.188 236.488 160.787 237.23 159.133C237.88 157.478 237.416 152.698 234.076 151.871Z" fill="url(#paint8_linear)"/>
<path d="M239.364 150.768C239.364 150.768 235.746 152.974 236.21 156.007C236.21 156.007 234.261 154.629 233.89 150.033C233.519 146.816 239.364 150.768 239.364 150.768Z" fill="url(#paint9_linear)"/>
<path d="M259.128 164.923C257.365 164.096 255.788 162.809 255.138 160.971C253.932 158.03 251.798 155.732 249.2 154.537C248.475 154.229 247.865 153.691 247.468 153.037C246.95 152.182 246.163 151.32 245.164 151.32H244.835C244.017 151.32 243.354 151.982 243.354 152.8C243.354 153.493 242.869 154.082 242.217 154.316C237.876 155.876 234.725 160.522 234.725 166.026C234.725 171.589 237.961 176.284 242.364 177.776C243.708 178.232 244.855 179.273 245.294 180.622C246.815 185.302 250.679 188.638 255.231 188.638C261.076 188.638 265.901 183.123 265.901 176.413C265.994 171.174 263.118 166.67 259.128 164.923Z" fill="url(#paint10_linear)"/>
<path d="M236.674 175.218C229.993 186.708 215.89 181.193 204.848 172.92C203.735 172.093 204.756 170.438 206.055 170.99C215.983 175.678 229.808 179.998 230.735 169.244C230.735 169.152 230.735 168.968 230.735 169.06C231.199 162.993 243.076 164.188 236.674 175.218Z" fill="#FAB9AF"/>
<path d="M230.365 203.069C233.798 206.93 253.561 208.584 253.561 208.584C255.046 206.93 248.179 187.719 248.179 187.719C248.179 187.719 251.427 173.839 251.334 168.876C251.241 166.854 249.571 165.199 247.53 165.199H235.004C233.055 165.199 231.478 166.67 231.293 168.6C230.921 172.553 236.21 187.351 236.21 187.351C236.21 187.351 227.396 199.668 230.365 203.069Z" fill="#FAB9AF"/>
<path d="M241.963 280.556C244.375 280.465 245.488 280.097 246.695 279.545L246.231 276.788C246.231 276.604 246.138 276.328 246.231 276.144L246.509 269.526C246.509 268.607 246.138 267.688 245.303 267.136C244.375 266.493 243.076 267.228 243.076 268.331C243.262 271.732 243.262 277.155 241.22 277.799C240.664 277.983 236.952 279.27 236.303 279.453C237.787 280.189 240.664 280.648 241.963 280.556Z" fill="#FA968C"/>
<path d="M241.128 279.821C239.643 279.821 238.251 279.637 236.86 279.453C236.674 279.453 236.488 279.453 236.303 279.453C234.726 280.005 233.705 280.556 234.169 281.476C234.354 281.843 242.52 281.66 245.767 281.568C246.416 281.568 246.88 280.924 246.788 280.281L246.602 279.086C244.839 279.545 242.983 279.821 241.128 279.821Z" fill="#7D4199"/>
<path d="M247.251 243.238C249.57 246.639 268.684 272.56 269.705 271.548C270.54 270.629 256.808 241.675 254.488 238.366C252.168 234.965 248.457 234.322 246.416 235.7C244.467 237.079 244.931 239.929 247.251 243.238Z" fill="#FAB9AF"/>
<path d="M237.324 242.135C237.787 244.8 241.313 259.507 243.633 268.975C244.839 273.755 245.303 277.247 245.767 277.064C246.88 276.604 246.602 244.617 245.86 240.572C245.117 236.528 242.612 233.586 240.2 234.046C237.973 234.506 236.674 238.09 237.324 242.135Z" fill="#FA968C"/>
<path d="M230.735 206.379C231.014 211.71 235.931 245.536 240.107 245.26C244.282 244.984 246.231 210.883 245.952 205.551C245.674 200.22 241.962 196.084 237.787 196.268C233.519 196.543 230.364 201.047 230.735 206.379Z" fill="#FA968C"/>
<path d="M243.169 269.618C243.633 269.894 246.138 269.986 246.602 269.618C246.88 259.783 246.416 243.421 245.952 240.664C245.86 240.388 245.86 240.021 245.767 239.745C244.746 235.792 244.19 231.656 244.653 227.612C245.674 218.328 246.045 208.309 245.86 205.643C245.581 200.312 241.87 196.176 237.695 196.359C233.519 196.635 230.55 200.68 230.55 206.011C230.55 218.971 243.076 269.434 243.169 269.618Z" fill="#F2F2F2"/>
<path d="M238.53 214.559C240.849 218.144 242.983 221.729 244.839 225.498C245.674 216.857 246.045 208.033 245.86 205.551C245.581 200.22 241.87 196.084 237.695 196.268C233.519 196.543 230.55 200.588 230.55 205.919C230.55 206.379 230.55 206.93 230.643 207.482C233.426 209.136 235.839 211.342 237.787 213.916C238.066 214.1 238.344 214.284 238.53 214.559Z" fill="#F2F2F2"/>
<path d="M237.138 205.184C237.231 210.515 243.262 241.124 247.53 241.032C251.705 240.94 253.282 210.147 253.19 204.816C253.097 199.485 248.829 195.256 244.653 195.348C240.385 195.348 237.045 199.76 237.138 205.184Z" fill="#FAB9AF"/>
<path d="M268.963 266.769C265.53 258.312 256.344 240.94 254.489 238.366C253.282 236.712 253.19 208.677 253.19 204.816C253.097 199.485 248.829 195.256 244.653 195.348C240.478 195.44 236.488 199.76 236.581 205.092C236.674 209.504 241.035 233.035 247.251 243.33C248.921 245.995 260.798 262.081 266.551 268.883C267.2 268.607 268.592 267.688 268.963 266.769Z" fill="white"/>
<path d="M249.313 190.28C249.261 190.131 249.246 189.986 249.266 189.829C249.53 187.811 251.42 173.127 251.334 168.508C251.241 166.578 249.757 165.107 247.808 165.107H246.6C246.206 165.107 245.856 165.344 245.653 165.681C244.842 167.031 243.448 167.957 241.406 167.957C239.309 167.957 237.895 166.906 237.094 165.55C236.939 165.286 236.664 165.107 236.358 165.107C235.774 165.107 235.396 165.727 235.498 166.302C236.047 169.41 232.171 170.861 233.046 177.535C233.052 177.582 233.062 177.631 233.075 177.678C234.218 181.689 235.07 185.595 235.33 186.823C235.384 187.079 235.336 187.338 235.198 187.56C233.942 189.58 227.687 200.003 230.365 203.07C233.452 206.542 249.749 208.229 252.997 208.534C253.351 208.567 253.693 208.399 253.753 208.049C254.318 204.796 249.952 192.11 249.313 190.28Z" fill="url(#paint11_linear)"/>
<path d="M239.365 166.026L245.117 165.475L243.262 159.316L239.55 159.684L239.365 166.026Z" fill="#FAB9AF"/>
<path d="M239.55 159.684L243.262 159.225L243.818 161.155C242.983 162.074 241.963 164.096 240.571 164.096C240.107 164.096 239.736 164.004 239.365 163.729L239.55 159.684Z" fill="#FA968C"/>
<path d="M239.515 162.868C240.829 162.868 242.346 162.256 244.368 160.77C245.581 159.896 246.39 158.322 246.39 157.273C246.39 154.087 243.807 151.504 240.621 151.504C238.002 151.504 235.625 153.311 235.878 155.917C235.932 156.472 236.026 157.048 236.179 157.623C236.684 159.896 238.403 162.868 239.515 162.868Z" fill="#FAB9AF"/>
<path d="M244.19 155.732C244.19 156.927 244.746 157.846 245.489 157.846C246.231 157.846 246.973 156.283 246.973 155.088C246.973 153.893 246.231 153.526 245.489 153.526C244.746 153.526 244.19 154.537 244.19 155.732Z" fill="#FAB9AF"/>
<path d="M243.54 148.102H240.386C239.55 148.102 238.715 147.919 237.973 147.459C236.767 146.816 235.282 146.999 234.447 148.102C233.705 149.205 233.427 150.584 235.468 151.963C236.426 152.567 237.875 151.956 238.817 152.183C238.936 152.212 239.057 152.239 239.179 152.239H241.963C242.983 152.239 243.633 153.066 243.726 153.985C243.726 154.537 244.282 154.996 244.839 154.996C244.895 154.996 244.944 154.961 244.962 154.908L245.269 153.994C245.352 153.748 245.499 153.527 245.695 153.356L246.42 152.723C246.771 152.415 246.973 151.971 246.973 151.503C246.973 149.665 245.396 148.102 243.54 148.102Z" fill="url(#paint12_linear)"/>
<path d="M202.436 169.795C202.436 169.795 203.643 172.828 204.756 172.737C205.777 172.645 206.519 172.461 206.519 170.898C206.519 169.336 205.684 167.313 204.942 166.118C204.199 164.923 202.158 163.545 201.88 163.545C200.673 163.545 202.251 165.475 202.9 166.486C203.643 167.497 204.292 168.692 203.735 168.876C203.179 169.06 201.972 167.13 201.23 167.13C200.488 167.13 202.436 169.795 202.436 169.795Z" fill="#FAB9AF"/>
<path d="M236.864 151.554C237.421 152.841 237.143 153.577 241.596 154.68C246.05 155.691 247.163 154.496 248.834 156.426C248.834 156.426 247.535 152.933 245.029 152.198C242.524 151.462 238.534 151.646 236.679 149.073C236.679 148.981 236.493 150.727 236.864 151.554Z" fill="url(#paint13_linear)"/>
<path d="M248.978 172.587C228.115 176.271 218.695 176.798 202.751 163.174C202.159 162.923 201.953 162.231 202.17 161.719C202.351 161.292 202.907 160.922 203.451 161.052C224.659 178.47 248.103 164.759 248.103 164.759C252.316 164.759 254.054 171.916 248.978 172.587Z" fill="#FAB9AF"/>
<path d="M110.022 166.946C110.022 166.946 106.775 167.681 106.682 168.784C106.589 169.887 106.682 170.622 108.259 170.806C109.837 170.99 112.063 170.53 113.362 169.979C114.661 169.427 116.424 167.589 116.517 167.313C116.703 166.118 114.476 167.405 113.362 167.957C112.249 168.508 110.95 168.968 110.857 168.416C110.764 167.773 112.991 166.946 113.084 166.21C113.177 165.383 110.022 166.946 110.022 166.946Z" fill="#FAB9AF"/>
<path d="M77.7637 158.663C77.7439 158.5 77.4947 158.514 77.4546 158.673C77.2691 159.5 76.3412 159.868 75.5989 159.408C75.3206 159.225 74.9494 159.133 74.6711 159.225C74.3927 159.316 74.1144 159.5 73.9288 159.776C73.3731 160.641 72.2061 160.833 71.2995 160.353C70.9889 160.188 70.7134 159.958 70.4769 159.698C70.3867 159.599 70.2958 159.493 70.1933 159.386C70.1481 159.339 70.109 159.294 70.0658 159.245C69.5611 158.675 68.9481 159.372 69.0988 160.118L69.5679 162.442C70.2174 165.383 73.0937 167.313 75.8773 166.67C77.3619 166.394 78.1969 164.923 78.1041 162.442C77.9907 160.811 77.8772 159.594 77.7637 158.663Z" fill="url(#paint14_linear)"/>
<path d="M107.702 156.375C106.96 156.559 106.403 158.857 105.754 158.857C105.383 158.857 105.383 158.397 105.476 157.754C104.919 158.581 104.269 159.317 103.434 159.96C103.434 160.603 103.527 161.247 103.713 161.706C104.177 163.177 104.919 163.269 105.939 162.993C106.96 162.718 107.331 159.409 107.331 159.409C107.331 159.409 108.445 156.191 107.702 156.375Z" fill="#FA968C"/>
<path opacity="0.9" d="M126.713 137.44H115.599C113.39 137.44 111.599 139.231 111.599 141.44V155.776C111.599 157.985 113.39 159.776 115.599 159.776H126.713C128.922 159.776 130.713 157.985 130.713 155.776V141.44C130.713 139.231 128.922 137.44 126.713 137.44Z" fill="url(#paint15_linear)"/>
<path opacity="0.9" d="M172.972 146.634H138.373C137.268 146.634 136.373 147.529 136.373 148.634V150.541C136.373 151.646 137.268 152.541 138.373 152.541H172.972C174.076 152.541 174.972 151.646 174.972 150.541V148.634C174.972 147.529 174.076 146.634 172.972 146.634Z" fill="url(#paint16_linear)"/>
<path opacity="0.9" d="M160.138 137.836H138.373C137.268 137.836 136.373 138.731 136.373 139.836V141.743C136.373 142.848 137.268 143.743 138.373 143.743H160.138C161.243 143.743 162.138 142.848 162.138 141.743V139.836C162.138 138.731 161.243 137.836 160.138 137.836Z" fill="url(#paint17_linear)"/>
<path d="M201.386 162.487C201.386 162.487 201.823 160.093 202.861 158.999C203.915 158.043 203.607 158.989 203.605 159.304C203.607 159.303 202.661 161.508 202.661 161.508C202.661 161.508 201.707 162.49 201.386 162.487Z" fill="#FAB9AF"/>
<path d="M192.693 148.838H210.786C212.271 148.838 213.477 150.033 213.477 151.503V153.709C213.477 155.18 212.271 156.375 210.786 156.375H205.683C204.199 156.375 203.085 157.57 203.085 158.949V169.887" stroke="url(#paint18_linear)" stroke-width="1.2729" stroke-miterlimit="10"/>
<path d="M210.416 152.606H195.663C195.013 152.606 194.549 152.147 194.549 151.503V146.264C194.549 145.621 195.013 145.161 195.663 145.161H210.416C211.065 145.161 211.529 145.621 211.529 146.264V151.503C211.529 152.055 210.972 152.606 210.416 152.606Z" fill="#7D4199"/>
<path d="M202.993 162.074V170.438" stroke="url(#paint19_linear)" stroke-width="2.5459" stroke-miterlimit="10"/>
<path d="M201.694 167.313C201.694 167.313 204.663 168.416 204.756 169.427C204.848 170.439 203.086 171.082 203.086 171.082C203.086 171.082 200.859 168.508 201.694 167.313Z" fill="#FAB9AF"/>
<path d="M196.693 188.638H134.786C131.512 188.638 128.857 191.293 128.857 194.567C128.857 197.841 131.512 200.496 134.786 200.496H196.693C199.967 200.496 202.621 197.841 202.621 194.567C202.621 191.293 199.967 188.638 196.693 188.638Z" fill="#E0E0E0"/>
<path d="M196.693 206.011H134.786C131.512 206.011 128.857 208.665 128.857 211.94C128.857 215.214 131.512 217.868 134.786 217.868H196.693C199.967 217.868 202.621 215.214 202.621 211.94C202.621 208.665 199.967 206.011 196.693 206.011Z" fill="#E0E0E0"/>
<path d="M196.693 223.384H134.786C131.512 223.384 128.857 226.038 128.857 229.312C128.857 232.587 131.512 235.241 134.786 235.241H196.693C199.967 235.241 202.621 232.587 202.621 229.312C202.621 226.038 199.967 223.384 196.693 223.384Z" fill="#E0E0E0"/>
<path d="M196.693 240.664H134.786C131.512 240.664 128.857 243.318 128.857 246.593C128.857 249.867 131.512 252.521 134.786 252.521H196.693C199.967 252.521 202.621 249.867 202.621 246.593C202.621 243.318 199.967 240.664 196.693 240.664Z" fill="#E0E0E0"/>
<path d="M202.978 160.246C202.84 160.805 203.53 161.321 203.313 161.723C203.173 161.899 202.94 161.809 202.627 161.562C202.627 161.562 201.991 162.109 201.385 162.489C202.228 163.348 203.336 164.13 204.443 164.529C205.721 164.969 206.03 164.449 206.308 163.714C206.633 162.92 204.863 161.817 204.863 161.817C204.863 161.817 203.117 159.687 202.978 160.246Z" fill="#FAB9AF"/>
<defs>
<filter id="filter0_d" x="94.012" y="79.9374" width="143.363" height="216.299" filterUnits="userSpaceOnUse" color-interpolation-filters="sRGB">
<feFlood flood-opacity="0" result="BackgroundImageFix"/>
<feColorMatrix in="SourceAlpha" type="matrix" values="0 0 0 0 0 0 0 0 0 0 0 0 0 0 0 0 0 0 127 0"/>
<feOffset/>
<feGaussianBlur stdDeviation="10"/>
<feColorMatrix type="matrix" values="0 0 0 0 0 0 0 0 0 0 0 0 0 0 0 0 0 0 0.25 0"/>
<feBlend mode="normal" in2="BackgroundImageFix" result="effect1_dropShadow"/>
<feBlend mode="normal" in="SourceGraphic" in2="effect1_dropShadow" result="shape"/>
</filter>
<filter id="filter1_d" x="94.012" y="240.702" width="143.363" height="61.7846" filterUnits="userSpaceOnUse" color-interpolation-filters="sRGB">
<feFlood flood-opacity="0" result="BackgroundImageFix"/>
<feColorMatrix in="SourceAlpha" type="matrix" values="0 0 0 0 0 0 0 0 0 0 0 0 0 0 0 0 0 0 127 0"/>
<feOffset/>
<feGaussianBlur stdDeviation="10"/>
<feColorMatrix type="matrix" values="0 0 0 0 0 0 0 0 0 0 0 0 0 0 0 0 0 0 0.25 0"/>
<feBlend mode="normal" in2="BackgroundImageFix" result="effect1_dropShadow"/>
<feBlend mode="normal" in="SourceGraphic" in2="effect1_dropShadow" result="shape"/>
</filter>
<filter id="filter2_d" x="138.989" y="245.506" width="51.3115" height="51.3115" filterUnits="userSpaceOnUse" color-interpolation-filters="sRGB">
<feFlood flood-opacity="0" result="BackgroundImageFix"/>
<feColorMatrix in="SourceAlpha" type="matrix" values="0 0 0 0 0 0 0 0 0 0 0 0 0 0 0 0 0 0 127 0"/>
<feOffset/>
<feGaussianBlur stdDeviation="10"/>
<feColorMatrix type="matrix" values="0 0 0 0 0 0 0 0 0 0 0 0 0 0 0 0 0 0 0.25 0"/>
<feBlend mode="normal" in2="BackgroundImageFix" result="effect1_dropShadow"/>
<feBlend mode="normal" in="SourceGraphic" in2="effect1_dropShadow" result="shape"/>
</filter>
<filter id="filter3_d" x="176.498" y="114.774" width="50.3919" height="66.932" filterUnits="userSpaceOnUse" color-interpolation-filters="sRGB">
<feFlood flood-opacity="0" result="BackgroundImageFix"/>
<feColorMatrix in="SourceAlpha" type="matrix" values="0 0 0 0 0 0 0 0 0 0 0 0 0 0 0 0 0 0 127 0"/>
<feOffset/>
<feGaussianBlur stdDeviation="10"/>
<feColorMatrix type="matrix" values="0 0 0 0 0 0 0 0 0 0 0 0 0 0 0 0 0 0 0.25 0"/>
<feBlend mode="normal" in2="BackgroundImageFix" result="effect1_dropShadow"/>
<feBlend mode="normal" in="SourceGraphic" in2="effect1_dropShadow" result="shape"/>
</filter>
<filter id="filter4_d" x="167.591" y="114.774" width="50.392" height="85.7752" filterUnits="userSpaceOnUse" color-interpolation-filters="sRGB">
<feFlood flood-opacity="0" result="BackgroundImageFix"/>
<feColorMatrix in="SourceAlpha" type="matrix" values="0 0 0 0 0 0 0 0 0 0 0 0 0 0 0 0 0 0 127 0"/>
<feOffset/>
<feGaussianBlur stdDeviation="10"/>
<feColorMatrix type="matrix" values="0 0 0 0 0 0 0 0 0 0 0 0 0 0 0 0 0 0 0.25 0"/>
<feBlend mode="normal" in2="BackgroundImageFix" result="effect1_dropShadow"/>
<feBlend mode="normal" in="SourceGraphic" in2="effect1_dropShadow" result="shape"/>
</filter>
<linearGradient id="paint0_linear" x1="75.3411" y1="68.8994" x2="78.5685" y2="91.0053" gradientUnits="userSpaceOnUse">
<stop stop-color="#E4675F"/>
<stop offset="1" stop-color="#E467E4"/>
</linearGradient>
<linearGradient id="paint1_linear" x1="93.4544" y1="76.8523" x2="126.993" y2="73.2515" gradientUnits="userSpaceOnUse">
<stop stop-color="#E4675F"/>
<stop offset="1" stop-color="#E467E4" stop-opacity="0.3"/>
</linearGradient>
<linearGradient id="paint2_linear" x1="92.0559" y1="68.2188" x2="111.307" y2="65.8141" gradientUnits="userSpaceOnUse">
<stop stop-color="#E4675F"/>
<stop offset="1" stop-color="#E467E4" stop-opacity="0.3"/>
</linearGradient>
<linearGradient id="paint3_linear" x1="165.647" y1="112.071" x2="165.647" y2="121.814" gradientUnits="userSpaceOnUse">
<stop stop-color="#E4675F"/>
<stop offset="1" stop-color="#E467E4"/>
</linearGradient>
<linearGradient id="paint4_linear" x1="72.2758" y1="164.74" x2="72.2758" y2="208.952" gradientUnits="userSpaceOnUse">
<stop stop-color="#0066C5"/>
<stop offset="1" stop-color="#66A5DF"/>
</linearGradient>
<linearGradient id="paint5_linear" x1="68.6862" y1="151.963" x2="68.6862" y2="160.306" gradientUnits="userSpaceOnUse">
<stop stop-color="#00245D"/>
<stop offset="1" stop-color="#00245D" stop-opacity="0.36"/>
</linearGradient>
<linearGradient id="paint6_linear" x1="71.8194" y1="147.835" x2="71.8194" y2="156.283" gradientUnits="userSpaceOnUse">
<stop stop-color="#00245D"/>
<stop offset="1" stop-color="#00245D" stop-opacity="0.36"/>
</linearGradient>
<linearGradient id="paint7_linear" x1="73.7974" y1="147.446" x2="73.7974" y2="153.745" gradientUnits="userSpaceOnUse">
<stop stop-color="#00245D"/>
<stop offset="1" stop-color="#00245D" stop-opacity="0.36"/>
</linearGradient>
<linearGradient id="paint8_linear" x1="234.414" y1="149.923" x2="244.805" y2="153.91" gradientUnits="userSpaceOnUse">
<stop stop-color="#E3E3E3"/>
<stop offset="1" stop-color="#E3E3E3" stop-opacity="0"/>
</linearGradient>
<linearGradient id="paint9_linear" x1="234.495" y1="147.627" x2="243.616" y2="157.081" gradientUnits="userSpaceOnUse">
<stop stop-color="#E3E3E3"/>
<stop offset="1" stop-color="#E3E3E3" stop-opacity="0"/>
</linearGradient>
<linearGradient id="paint10_linear" x1="238.259" y1="145.416" x2="284.921" y2="198.665" gradientUnits="userSpaceOnUse">
<stop stop-color="#E3E3E3"/>
<stop offset="1" stop-color="#E3E3E3" stop-opacity="0"/>
</linearGradient>
<linearGradient id="paint11_linear" x1="241.754" y1="165.107" x2="241.754" y2="208.585" gradientUnits="userSpaceOnUse">
<stop stop-color="#0066C5"/>
<stop offset="1" stop-color="#66A5DF"/>
</linearGradient>
<linearGradient id="paint12_linear" x1="235.377" y1="145.838" x2="242.759" y2="162.517" gradientUnits="userSpaceOnUse">
<stop stop-color="#E3E3E3"/>
<stop offset="1" stop-color="#E3E3E3" stop-opacity="0"/>
</linearGradient>
<linearGradient id="paint13_linear" x1="238.015" y1="147.905" x2="244.871" y2="163.437" gradientUnits="userSpaceOnUse">
<stop stop-color="#E3E3E3"/>
<stop offset="1" stop-color="#E3E3E3" stop-opacity="0"/>
</linearGradient>
<linearGradient id="paint14_linear" x1="73.4684" y1="157.202" x2="73.4684" y2="166.794" gradientUnits="userSpaceOnUse">
<stop stop-color="#00245D"/>
<stop offset="1" stop-color="#00245D"/>
</linearGradient>
<linearGradient id="paint15_linear" x1="121.156" y1="137.44" x2="121.156" y2="159.776" gradientUnits="userSpaceOnUse">
<stop stop-color="#E4675F"/>
<stop offset="1" stop-color="#E467E4"/>
</linearGradient>
<linearGradient id="paint16_linear" x1="136.71" y1="147.375" x2="170.417" y2="148.744" gradientUnits="userSpaceOnUse">
<stop stop-color="#E4675F"/>
<stop offset="1" stop-color="#E467E4" stop-opacity="0.3"/>
</linearGradient>
<linearGradient id="paint17_linear" x1="136.598" y1="138.577" x2="159.118" y2="139.188" gradientUnits="userSpaceOnUse">
<stop stop-color="#E4675F"/>
<stop offset="1" stop-color="#E467E4" stop-opacity="0.3"/>
</linearGradient>
<linearGradient id="paint18_linear" x1="203.085" y1="148.838" x2="203.085" y2="169.887" gradientUnits="userSpaceOnUse">
<stop stop-color="#E4675F"/>
<stop offset="1" stop-color="#E467E4"/>
</linearGradient>
<linearGradient id="paint19_linear" x1="203.493" y1="162.074" x2="203.493" y2="170.438" gradientUnits="userSpaceOnUse">
<stop stop-color="#E4675F"/>
<stop offset="1" stop-color="#E467E4"/>
</linearGradient>
</defs>
</svg>
