<svg width="154" height="20" viewBox="0 0 154 20" fill="none" xmlns="http://www.w3.org/2000/svg">
<path d="M35.4404 15V11.7119L36.4521 10.5566L39.8701 15H41.7705L37.5322 9.50391L41.4424 5.13574H39.624L35.502 9.83203H35.4404V5.13574H33.9092V15H35.4404ZM45.0859 13.8721C43.9854 13.8721 43.3291 12.9355 43.3291 11.4043C43.3291 9.90723 44.0195 8.93652 45.1064 8.93652C46.2275 8.93652 46.9932 9.96875 46.9932 11.4043C46.9932 12.8604 46.2412 13.8721 45.0859 13.8721ZM44.8262 15.123C45.8174 15.123 46.6582 14.583 47.0068 13.8174H47.0479C47.0547 13.8379 47.0615 13.8584 47.0684 13.8789C47.2529 14.665 47.8408 15.0547 48.7568 15.0547C49.0576 15.0547 49.3311 15.0137 49.4678 14.959L49.4609 13.8174C49.3721 13.8447 49.2217 13.8721 49.0918 13.8721C48.6543 13.8721 48.4766 13.626 48.4766 13.0039V7.80859H47.041V9.00488H47.0137C46.583 8.21191 45.8311 7.69238 44.8262 7.69238C42.9873 7.69238 41.8184 9.14844 41.8184 11.4043C41.8184 13.667 42.9805 15.123 44.8262 15.123ZM53.9453 15.0479C54.2734 15.0479 54.6152 15.0068 54.793 14.959L54.7861 13.8105C54.6289 13.8379 54.4854 13.8447 54.2871 13.8447C53.624 13.8447 53.3916 13.5234 53.3916 12.9219V9.01855H55.8047V7.80859H49.7344V9.01855H51.9082V13.0586C51.9082 14.4668 52.4346 15.0479 53.9453 15.0479ZM59.8789 13.8721C58.7783 13.8721 58.1221 12.9355 58.1221 11.4043C58.1221 9.90723 58.8125 8.93652 59.8994 8.93652C61.0205 8.93652 61.7861 9.96875 61.7861 11.4043C61.7861 12.8604 61.0342 13.8721 59.8789 13.8721ZM59.6191 15.123C60.6104 15.123 61.4512 14.583 61.7998 13.8174H61.8408C61.8477 13.8379 61.8545 13.8584 61.8613 13.8789C62.0459 14.665 62.6338 15.0547 63.5498 15.0547C63.8506 15.0547 64.124 15.0137 64.2607 14.959L64.2539 13.8174C64.165 13.8447 64.0146 13.8721 63.8848 13.8721C63.4473 13.8721 63.2695 13.626 63.2695 13.0039V7.80859H61.834V9.00488H61.8066C61.376 8.21191 60.624 7.69238 59.6191 7.69238C57.7803 7.69238 56.6113 9.14844 56.6113 11.4043C56.6113 13.667 57.7734 15.123 59.6191 15.123ZM64.8008 17.3789H66.3115L68.1162 13.9199H68.1367L69.2852 16.1963C69.7842 17.1738 70.1396 17.4062 71.124 17.4062C71.3975 17.4062 71.6641 17.3584 71.8213 17.3174L71.7529 16.1553C71.6504 16.1963 71.4863 16.2168 71.377 16.2168C70.9326 16.2168 70.7412 16.0732 70.4268 15.458L68.998 12.6621L71.7188 7.80859H70.208L68.3555 11.3564H68.335L67.2002 9.09375C66.6807 8.06836 66.2568 7.78809 65.3477 7.78809C65.0947 7.78809 64.835 7.82227 64.5889 7.87012V9.03223C64.6846 9.00488 64.8828 8.97754 64.9854 8.97754C65.4707 8.97754 65.6963 9.10742 66.0176 9.72949L67.4736 12.6143L64.8008 17.3789ZM79.0947 15.1367C80.79 15.1367 81.665 13.8652 81.665 11.6162C81.665 10.2695 81.2617 8.7793 80.6328 7.80859H79.1016C79.8262 9.01172 80.1953 10.2764 80.1953 11.623C80.1953 13.1406 79.792 13.8516 78.9443 13.8516C78.1855 13.8516 77.7207 13.1748 77.7207 12.1494V9.86621H76.3193V12.1494C76.3193 13.168 75.8613 13.8516 75.1094 13.8516C74.2549 13.8516 73.8516 13.1406 73.8516 11.623C73.8516 10.2764 74.2207 9.01172 74.9453 7.80859H73.4141C72.792 8.7793 72.3818 10.2695 72.3818 11.6162C72.3818 13.8584 73.2568 15.1367 74.9521 15.1367C75.916 15.1367 76.6064 14.5762 77.0029 13.5098H77.0439C77.4404 14.5762 78.1309 15.1367 79.0947 15.1367ZM76.4424 6.79004H77.6318L78.6641 4.69824H76.9619L76.4424 6.79004ZM86.2041 13.8652C85.2266 13.8652 84.3311 13.0791 84.3311 11.377C84.3311 9.83887 85.0283 8.90918 86.2109 8.90918C87.3867 8.90918 88.1182 9.81836 88.1182 11.3906C88.1182 12.9287 87.3867 13.8652 86.2041 13.8652ZM82.8613 17.3789H84.3379V13.8721H84.3721C84.7549 14.6445 85.582 15.123 86.5801 15.123C88.4531 15.123 89.6357 13.6738 89.6357 11.377C89.6357 9.12109 88.2754 7.67871 86.2178 7.67871C84.167 7.67871 82.8613 9.13477 82.8613 11.4658V17.3789ZM90.7842 7.80859V13.1064C90.7842 14.501 91.3516 15.0479 92.8076 15.0479C93.1426 15.0479 93.5322 14.9795 93.6416 14.9521L93.6279 13.8105C93.5254 13.8311 93.2861 13.8447 93.1426 13.8447C92.541 13.8447 92.2676 13.5645 92.2676 12.9424V7.80859H90.7842ZM97.5928 15.1367C99.6436 15.1367 100.929 13.6738 100.929 11.5068C100.929 10.4951 100.539 9.53809 99.9102 9.05273V9.01855H101.954V7.80859H97.873C95.6514 7.80859 94.2227 9.27832 94.2227 11.5137C94.2227 13.7012 95.5488 15.1367 97.5928 15.1367ZM97.5859 13.9131C96.458 13.9131 95.7334 12.9902 95.7334 11.5C95.7334 10.0234 96.4922 9.07324 97.6953 9.07324C98.8027 9.07324 99.4863 10.0029 99.4863 11.4795C99.4863 12.9834 98.7617 13.9131 97.5859 13.9131ZM110.096 17.3789V10.3652C110.096 8.69043 109.234 7.68555 107.573 7.68555C106.5 7.68555 105.823 8.15039 105.393 8.98438H105.358C105.338 8.88184 105.311 8.79297 105.283 8.7041C105.051 8.04785 104.504 7.74023 103.697 7.74023C103.403 7.74023 103.185 7.76758 102.891 7.8291V8.99121C102.986 8.95703 103.171 8.92969 103.294 8.92969C103.725 8.92969 103.943 9.16895 103.943 9.80469V15H105.42V10.8027C105.42 9.71582 106.049 8.95703 107.067 8.95703C108.209 8.95703 108.619 9.57227 108.619 10.7207V17.3789H110.096Z" fill="#C4C4C4"/>
<path d="M16 12C14.8954 12 14 11.1046 14 10C14 8.89543 14.8954 8 16 8C17.1046 8 18 8.89543 18 10C18 11.1046 17.1046 12 16 12Z" fill="#474EBB"/>
<path d="M7 10C7 11.1046 7.89543 12 9 12C10.1046 12 11 11.1046 11 10C11 8.89546 10.1046 8.00003 9 8.00003C7.89543 8.00003 7 8.89546 7 10Z" fill="#474EBB"/>
<path d="M2 12C0.89543 12 0 11.1046 0 10C0 8.89546 0.89543 8.00003 2 8.00003C3.10457 8.00003 4 8.89546 4 10C4 11.1046 3.10457 12 2 12Z" fill="#474EBB"/>
<path d="M16 18C14.8954 18 14 17.1046 14 16C14 14.8954 14.8954 14 16 14C17.1046 14 18 14.8954 18 16C18 17.1046 17.1046 18 16 18Z" fill="#474EBB"/>
<path d="M0 16.0001C0 17.1046 0.89543 18.0001 2 18.0001C3.10457 18.0001 4 17.1046 4 16.0001C4 14.8955 3.10457 14.0001 2 14.0001C0.89543 14.0001 0 14.8955 0 16.0001Z" fill="#474EBB"/>
<path d="M9 18C7.89543 18 7 17.1046 7 16C7 14.8954 7.89543 14 9 14C10.1046 14 11 14.8954 11 16C11 17.1046 10.1046 18 9 18Z" fill="#474EBB"/>
<path d="M14 4C14 5.10457 14.8954 6 16 6C17.1046 6 18 5.10457 18 4C18 2.89543 17.1046 2 16 2C14.8954 2 14 2.89543 14 4Z" fill="#474EBB"/>
<path d="M9 6C7.89543 6 7 5.10457 7 4C7 2.89543 7.89543 2 9 2C10.1046 2 11 2.89543 11 4C11 5.10457 10.1046 6 9 6Z" fill="#474EBB"/>
<path d="M0 4C0 5.10457 0.89543 6 2 6C3.10457 6 4 5.10457 4 4C4 2.89543 3.10457 2 2 2C0.89543 2 0 2.89543 0 4Z" fill="#474EBB"/>
</svg>
