<svg width="109" height="17" viewBox="0 0 109 17" fill="none" xmlns="http://www.w3.org/2000/svg">
<path d="M30.8906 13V5.9541H29.4355L27.2773 11.2715H27.2383L25.0801 5.9541H23.6201V13H24.7578V8H24.792L26.8281 12.9414H27.6875L29.7236 8H29.7578V13H30.8906ZM36.6963 11.9355H33.3955V9.92383H36.5156V8.92285H33.3955V7.01855H36.6963V5.9541H32.1357V13H36.6963V11.9355ZM39.0059 13V8.05859H39.0498L42.5508 13H43.6348V5.9541H42.4238V10.8906H42.3799L38.8838 5.9541H37.79V13H39.0059ZM47.9854 5.83691C45.9297 5.83691 44.6406 7.23828 44.6406 9.47949C44.6406 11.7207 45.9297 13.1172 47.9854 13.1172C50.0361 13.1172 51.3252 11.7207 51.3252 9.47949C51.3252 7.23828 50.0361 5.83691 47.9854 5.83691ZM47.9854 6.91113C49.2402 6.91113 50.041 7.90723 50.041 9.47949C50.041 11.0469 49.2402 12.043 47.9854 12.043C46.7256 12.043 45.9297 11.0469 45.9297 9.47949C45.9297 7.90723 46.7256 6.91113 47.9854 6.91113ZM55.1484 13V10.2217L57.6191 5.9541H56.2471L54.543 9.02051H54.5137L52.8047 5.9541H51.4229L53.8936 10.2217V13H55.1484ZM64.9385 11.9355H61.6377V9.92383H64.7578V8.92285H61.6377V7.01855H64.9385V5.9541H60.3779V13H64.9385V11.9355ZM71.877 13V5.9541H66.0322V13H67.292V7.01367H70.6221V13H71.877ZM74.3818 13V5.9541H73.1221V13H74.3818ZM80.0605 13H81.3887L78.9717 5.9541H77.5508L75.1338 13H76.4326L78.2295 7.2627H78.2637L80.0605 13ZM84.9873 5.83691C82.9316 5.83691 81.6426 7.23828 81.6426 9.47949C81.6426 11.7207 82.9316 13.1172 84.9873 13.1172C87.0381 13.1172 88.3271 11.7207 88.3271 9.47949C88.3271 7.23828 87.0381 5.83691 84.9873 5.83691ZM84.9873 6.91113C86.2422 6.91113 87.043 7.90723 87.043 9.47949C87.043 11.0469 86.2422 12.043 84.9873 12.043C83.7275 12.043 82.9316 11.0469 82.9316 9.47949C82.9316 7.90723 83.7275 6.91113 84.9873 6.91113ZM90.5928 13V7.01855H93.7275V5.9541H89.333V13H90.5928ZM99.5039 9.14258C99.5039 10.3047 99.0205 11.1055 98.0488 11.7305V13H100.778V11.9697H99.3184V11.9355C100.217 11.3545 100.778 10.3193 100.778 9.06934C100.778 7.15039 99.4258 5.83691 97.4336 5.83691C95.4414 5.83691 94.0938 7.15039 94.0938 9.06934C94.0938 10.3193 94.6504 11.3545 95.5537 11.9355V11.9697H94.0938V13H96.8184V11.7305C95.8467 11.1055 95.3633 10.3047 95.3633 9.14258C95.3633 7.76074 96.1689 6.91113 97.4336 6.91113C98.6982 6.91113 99.5039 7.76074 99.5039 9.14258ZM103.059 13V8.05859H103.103L106.604 13H107.688V5.9541H106.477V10.8906H106.433L102.937 5.9541H101.843V13H103.059Z" fill="black" fill-opacity="0.58"/>
<path fill-rule="evenodd" clip-rule="evenodd" d="M6.37498 2.83334H14.875C15.6574 2.83334 16.2916 3.46761 16.2916 4.25001V13.4583C16.2916 14.2407 15.6574 14.875 14.875 14.875H6.37498H4.95831H2.12498C1.34258 14.875 0.708313 14.2407 0.708313 13.4583V4.25001C0.708313 3.46761 1.34258 2.83334 2.12498 2.83334H4.95831H6.37498ZM4.95831 4.25001H2.12498V6.37501H4.95831V4.25001ZM6.37498 6.37501V4.25001H14.875V6.37501H6.37498ZM4.95831 7.79168H2.12498V9.91668H4.95831V7.79168ZM6.37498 9.91668V7.79168H14.875V9.91668H6.37498ZM4.95831 11.3333H2.12498V13.4583H4.95831V11.3333ZM6.37498 13.4583V11.3333H14.875V13.4583H6.37498Z" fill="black" fill-opacity="0.58"/>
</svg>
