<svg width="185" height="17" viewBox="0 0 185 17" fill="none" xmlns="http://www.w3.org/2000/svg">
<path d="M24.8799 13V10.7344L25.5732 9.92383L27.8633 13H29.3965L26.4717 9.0791L29.1865 5.9541H27.7363L24.9238 9.25H24.8799V5.9541H23.6201V13H24.8799ZM34.6699 13H35.998L33.498 5.9541H32.0771L29.5771 13H30.876L31.4766 11.1787H34.0693L34.6699 13ZM32.7559 7.19922H32.79L33.7715 10.207H31.7695L32.7559 7.19922ZM38.9131 13V7.01855H41.0176V5.9541H35.5488V7.01855H37.6582V13H38.9131ZM45.666 13H46.9941L44.4941 5.9541H43.0732L40.5732 13H41.8721L42.4727 11.1787H45.0654L45.666 13ZM43.752 7.19922H43.7861L44.7676 10.207H42.7656L43.752 7.19922ZM47.248 13H48.6201L50.2998 10.4121H50.3389L51.999 13H53.4492L51.1396 9.49902V9.46484L53.4883 5.9541H52.0771L50.4268 8.60059H50.3877L48.7568 5.9541H47.2676L49.543 9.43555V9.46973L47.248 13ZM59.5625 9.14258C59.5625 10.3047 59.0791 11.1055 58.1074 11.7305V13H60.8369V11.9697H59.377V11.9355C60.2754 11.3545 60.8369 10.3193 60.8369 9.06934C60.8369 7.15039 59.4844 5.83691 57.4922 5.83691C55.5 5.83691 54.1523 7.15039 54.1523 9.06934C54.1523 10.3193 54.709 11.3545 55.6123 11.9355V11.9697H54.1523V13H56.877V11.7305C55.9053 11.1055 55.4219 10.3047 55.4219 9.14258C55.4219 7.76074 56.2275 6.91113 57.4922 6.91113C58.7568 6.91113 59.5625 7.76074 59.5625 9.14258ZM61.9014 5.9541V13H63.1611V10.6709H64.5869C66.0127 10.6709 67.0137 9.71875 67.0137 8.3125C67.0137 6.90625 66.042 5.9541 64.6406 5.9541H61.9014ZM63.1611 6.98438H64.3086C65.2119 6.98438 65.7344 7.46777 65.7344 8.3125C65.7344 9.16699 65.207 9.65527 64.3037 9.65527H63.1611V6.98438ZM69.1963 13V5.9541H67.9365V13H69.1963ZM71.8037 11.9014L73.5566 9.42578V9.3916L71.9307 7.05273V7.01855H75.3633V5.9541H70.3633V6.86719L72.1992 9.46484L70.2656 12.2041V13H75.4902V11.9355H71.8037V11.9014ZM82.502 13V5.9541H81.2471V8.88379H77.8193V5.9541H76.5596V13H77.8193V9.94336H81.2471V13H82.502ZM88.9863 13V10.2217L91.457 5.9541H90.085L88.3809 9.02051H88.3516L86.6426 5.9541H85.2607L87.7314 10.2217V13H88.9863ZM95.8711 13H97.1992L94.7822 5.9541H93.3613L90.9443 13H92.2432L94.04 7.2627H94.0742L95.8711 13ZM99.2158 13V5.9541H97.9561V13H99.2158ZM101.716 13V10.7344L102.409 9.92383L104.699 13H106.232L103.308 9.0791L106.022 5.9541H104.572L101.76 9.25H101.716V5.9541H100.456V13H101.716ZM112.141 9.14258C112.141 10.3047 111.657 11.1055 110.686 11.7305V13H113.415V11.9697H111.955V11.9355C112.854 11.3545 113.415 10.3193 113.415 9.06934C113.415 7.15039 112.062 5.83691 110.07 5.83691C108.078 5.83691 106.73 7.15039 106.73 9.06934C106.73 10.3193 107.287 11.3545 108.19 11.9355V11.9697H106.73V13H109.455V11.7305C108.483 11.1055 108 10.3047 108 9.14258C108 7.76074 108.806 6.91113 110.07 6.91113C111.335 6.91113 112.141 7.76074 112.141 9.14258ZM115.695 13V8.05859H115.739L119.24 13H120.324V5.9541H119.113V10.8906H119.069L115.573 5.9541H114.479V13H115.695ZM124.831 13V10.7344L125.524 9.92383L127.814 13H129.348L126.423 9.0791L129.138 5.9541H127.688L124.875 9.25H124.831V5.9541H123.571V13H124.831ZM134.621 13H135.949L133.449 5.9541H132.028L129.528 13H130.827L131.428 11.1787H134.021L134.621 13ZM132.707 7.19922H132.741L133.723 10.207H131.721L132.707 7.19922ZM137.966 13V5.9541H136.706V13H137.966ZM142.468 13V10.7344L143.161 9.92383L145.451 13H146.984L144.06 9.0791L146.774 5.9541H145.324L142.512 9.25H142.468V5.9541H141.208V13H142.468ZM152.893 9.14258C152.893 10.3047 152.409 11.1055 151.438 11.7305V13H154.167V11.9697H152.707V11.9355C153.605 11.3545 154.167 10.3193 154.167 9.06934C154.167 7.15039 152.814 5.83691 150.822 5.83691C148.83 5.83691 147.482 7.15039 147.482 9.06934C147.482 10.3193 148.039 11.3545 148.942 11.9355V11.9697H147.482V13H150.207V11.7305C149.235 11.1055 148.752 10.3047 148.752 9.14258C148.752 7.76074 149.558 6.91113 150.822 6.91113C152.087 6.91113 152.893 7.76074 152.893 9.14258ZM160.988 13V12.2383L158.64 5.9541H157.219L154.87 12.2383V13H160.988ZM156.218 11.9014L157.883 7.15527H157.917L159.577 11.9014V11.9404H156.218V11.9014ZM163.132 13V5.9541H161.872V13H163.132ZM165.632 13V10.7344L166.325 9.92383L168.615 13H170.148L167.224 9.0791L169.938 5.9541H168.488L165.676 9.25H165.632V5.9541H164.372V13H165.632ZM176.057 9.14258C176.057 10.3047 175.573 11.1055 174.602 11.7305V13H177.331V11.9697H175.871V11.9355C176.77 11.3545 177.331 10.3193 177.331 9.06934C177.331 7.15039 175.979 5.83691 173.986 5.83691C171.994 5.83691 170.646 7.15039 170.646 9.06934C170.646 10.3193 171.203 11.3545 172.106 11.9355V11.9697H170.646V13H173.371V11.7305C172.399 11.1055 171.916 10.3047 171.916 9.14258C171.916 7.76074 172.722 6.91113 173.986 6.91113C175.251 6.91113 176.057 7.76074 176.057 9.14258ZM179.611 13V8.05859H179.655L183.156 13H184.24V5.9541H183.029V10.8906H182.985L179.489 5.9541H178.396V13H179.611Z" fill="black" fill-opacity="0.58"/>
<path fill-rule="evenodd" clip-rule="evenodd" d="M6.37498 2.83334H14.875C15.6574 2.83334 16.2916 3.4676 16.2916 4.25V13.4583C16.2916 14.2407 15.6574 14.875 14.875 14.875H6.37498H4.95831H2.12498C1.34258 14.875 0.708313 14.2407 0.708313 13.4583V4.25C0.708313 3.4676 1.34258 2.83334 2.12498 2.83334H4.95831H6.37498ZM4.95831 4.25H2.12498V6.375H4.95831V4.25ZM6.37498 6.375V4.25H14.875V6.375H6.37498ZM4.95831 7.79167H2.12498V9.91667H4.95831V7.79167ZM6.37498 9.91667V7.79167H14.875V9.91667H6.37498ZM4.95831 11.3333H2.12498V13.4583H4.95831V11.3333ZM6.37498 13.4583V11.3333H14.875V13.4583H6.37498Z" fill="black" fill-opacity="0.58"/>
</svg>
