<svg width="183" height="17" viewBox="0 0 183 17" fill="none" xmlns="http://www.w3.org/2000/svg">
<path d="M23.6201 4.9541V12H24.8799V9.6709H26.3057C27.7314 9.6709 28.7324 8.71875 28.7324 7.3125C28.7324 5.90625 27.7607 4.9541 26.3594 4.9541H23.6201ZM24.8799 5.98438H26.0273C26.9307 5.98438 27.4531 6.46777 27.4531 7.3125C27.4531 8.16699 26.9258 8.65527 26.0225 8.65527H24.8799V5.98438ZM32.6973 12V9.22168L35.168 4.9541H33.7959L32.0918 8.02051H32.0625L30.3535 4.9541H28.9717L31.4424 9.22168V12H32.6973ZM40.0166 8.99219V7.99609H37.3555V8.99219H40.0166ZM38.6885 4.83691C36.5352 4.83691 35.2656 6.25293 35.2656 8.47949C35.2656 10.7061 36.5498 12.1172 38.6885 12.1172C40.8271 12.1172 42.1064 10.7061 42.1064 8.47949C42.1064 6.25293 40.8516 4.83691 38.6885 4.83691ZM38.6885 5.91113C40.0361 5.91113 40.8369 6.89258 40.8369 8.47949C40.8369 10.0615 40.0361 11.043 38.6885 11.043C37.3457 11.043 36.54 10.0615 36.54 8.47949C36.54 6.89258 37.3457 5.91113 38.6885 5.91113ZM50.3828 12V4.9541H48.9277L46.7695 10.2715H46.7305L44.5723 4.9541H43.1123V12H44.25V7H44.2842L46.3203 11.9414H47.1797L49.2158 7H49.25V12H50.3828ZM52.8877 12V4.9541H51.6279V12H52.8877ZM55.4951 10.9014L57.248 8.42578V8.3916L55.6221 6.05273V6.01855H59.0547V4.9541H54.0547V5.86719L55.8906 8.46484L53.957 11.2041V12H59.1816V10.9355H55.4951V10.9014ZM64.8115 10.9355H61.5107V8.92383H64.6309V7.92285H61.5107V6.01855H64.8115V4.9541H60.251V12H64.8115V10.9355ZM67.165 12V4.9541H65.9053V12H67.165ZM69.7725 10.9014L71.5254 8.42578V8.3916L69.8994 6.05273V6.01855H73.332V4.9541H68.332V5.86719L70.168 8.46484L68.2344 11.2041V12H73.459V10.9355H69.7725V10.9014Z" fill="black" fill-opacity="0.58"/>
<path fill-rule="evenodd" clip-rule="evenodd" d="M4.60419 7.79167C2.84378 7.79167 1.41669 6.36458 1.41669 4.60417C1.41669 2.84376 2.84378 1.41667 4.60419 1.41667C6.36459 1.41667 7.79169 2.84376 7.79169 4.60417C7.79169 6.36458 6.36459 7.79167 4.60419 7.79167ZM1.41669 12.3958C1.41669 14.1562 2.84378 15.5833 4.60419 15.5833C6.36459 15.5833 7.79169 14.1562 7.79169 12.3958C7.79169 10.6354 6.36459 9.20834 4.60419 9.20834C2.84378 9.20834 1.41669 10.6354 1.41669 12.3958ZM9.20835 12.3958C9.20835 14.1562 10.6354 15.5833 12.3959 15.5833C14.1563 15.5833 15.5834 14.1562 15.5834 12.3958C15.5834 10.6354 14.1563 9.20834 12.3959 9.20834C10.6354 9.20834 9.20835 10.6354 9.20835 12.3958ZM9.20835 4.60417C9.20835 6.36458 10.6354 7.79167 12.3959 7.79167C14.1563 7.79167 15.5834 6.36458 15.5834 4.60417C15.5834 2.84376 14.1563 1.41667 12.3959 1.41667C10.6354 1.41667 9.20835 2.84376 9.20835 4.60417ZM12.3959 6.37501C13.3739 6.37501 14.1667 5.58218 14.1667 4.60417C14.1667 3.62617 13.3739 2.83334 12.3959 2.83334C11.4178 2.83334 10.625 3.62617 10.625 4.60417C10.625 5.58218 11.4178 6.37501 12.3959 6.37501ZM6.37502 4.60417C6.37502 5.58218 5.58219 6.37501 4.60419 6.37501C3.62618 6.37501 2.83335 5.58218 2.83335 4.60417C2.83335 3.62617 3.62618 2.83334 4.60419 2.83334C5.58219 2.83334 6.37502 3.62617 6.37502 4.60417ZM12.3959 14.1667C13.3739 14.1667 14.1667 13.3738 14.1667 12.3958C14.1667 11.4178 13.3739 10.625 12.3959 10.625C11.4178 10.625 10.625 11.4178 10.625 12.3958C10.625 13.3738 11.4178 14.1667 12.3959 14.1667ZM6.37502 12.3958C6.37502 13.3738 5.58219 14.1667 4.60419 14.1667C3.62618 14.1667 2.83335 13.3738 2.83335 12.3958C2.83335 11.4178 3.62618 10.625 4.60419 10.625C5.58219 10.625 6.37502 11.4178 6.37502 12.3958Z" fill="#909090"/>
</svg>
